<?xml version="1.0" standalone="no"?>
<!DOCTYPE svg PUBLIC "-//W3C//DTD SVG 20010904//EN"
 "http://www.w3.org/TR/2001/REC-SVG-20010904/DTD/svg10.dtd">
<svg version="1.0" xmlns="http://www.w3.org/2000/svg"
 width="129.000000pt" height="129.000000pt" viewBox="0 0 129.000000 129.000000"
 preserveAspectRatio="xMidYMid meet">
<metadata>
Created by potrace 1.14, written by Peter Selinger 2001-2017
</metadata>
<g transform="translate(0.000000,129.000000) scale(0.100000,-0.100000)"
fill="#000000" stroke="none">
<path d="M388 1243 c-22 -26 -28 -49 -16 -61 7 -7 3 -14 -12 -22 -12 -6 -19
-14 -17 -17 3 -2 15 0 26 7 17 9 21 8 21 -4 0 -22 17 -29 56 -21 41 7 36 21
-14 42 -26 11 -32 17 -23 26 13 13 15 67 3 67 -5 0 -16 -8 -24 -17z"/>
<path d="M872 1225 c2 -19 0 -35 -5 -35 -4 0 -5 -4 -2 -10 3 -5 0 -10 -8 -10
-8 0 -22 -8 -31 -19 -16 -18 -16 -19 9 -25 40 -10 60 0 73 37 16 45 15 61 -6
80 -28 25 -35 21 -30 -18z"/>
<path d="M483 1230 c-25 -10 -31 -35 -10 -43 17 -6 77 19 77 33 0 5 -4 10 -9
10 -5 0 -15 2 -23 4 -7 3 -23 1 -35 -4z"/>
<path d="M758 1233 c-26 -6 -22 -21 10 -36 26 -13 62 -12 62 1 -1 25 -40 43
-72 35z"/>
<path d="M285 1181 c-13 -26 -13 -32 -1 -44 13 -13 11 -18 -15 -43 l-29 -28 0
25 c0 13 -7 32 -14 42 -12 16 -14 15 -26 -13 -10 -25 -10 -34 4 -55 16 -24 16
-27 -4 -52 -12 -15 -20 -20 -20 -12 0 8 -7 25 -16 38 -13 18 -18 20 -25 10
-14 -23 -10 -69 6 -75 18 -7 18 -14 4 -51 l-10 -28 -17 27 c-25 42 -42 43 -42
2 0 -27 5 -37 24 -45 21 -10 23 -14 13 -44 l-10 -33 -22 26 c-24 28 -46 23
-40 -9 5 -27 24 -49 41 -49 14 0 20 -41 8 -52 -3 -4 -18 1 -34 10 -36 21 -46
12 -28 -25 9 -19 21 -28 36 -27 13 0 23 -6 23 -15 1 -9 3 -26 4 -38 2 -20 1
-21 -21 -6 -13 8 -30 13 -38 11 -27 -5 4 -52 39 -58 21 -4 31 -12 36 -33 8
-31 9 -30 -24 -18 -35 14 -50 0 -31 -28 12 -17 24 -22 44 -19 24 4 31 -1 44
-28 l15 -33 -33 6 c-40 6 -56 -12 -30 -32 22 -16 68 -20 59 -5 -16 26 16 6 39
-24 23 -30 23 -33 6 -29 -25 7 -70 -4 -70 -17 0 -8 31 -22 55 -25 6 -1 17 4
25 11 12 10 20 9 39 -7 13 -11 21 -22 17 -26 -3 -3 -6 -4 -6 0 0 3 -14 1 -30
-5 -40 -14 -33 -32 13 -36 28 -2 37 0 37 13 0 14 3 14 29 0 35 -18 49 -35 23
-28 -10 2 -29 -4 -42 -15 l-24 -20 31 -6 c35 -8 78 9 67 26 -4 6 -1 8 7 4 8
-3 22 -9 32 -12 16 -6 25 -26 10 -22 -12 3 -53 -21 -53 -31 0 -19 51 -18 73 1
12 11 15 16 7 12 -10 -5 -12 -4 -5 4 10 11 125 -14 142 -31 4 -5 4 -7 -2 -5
-12 3 -85 -40 -85 -51 0 -4 11 -13 24 -19 20 -9 27 -7 46 13 29 31 74 49 104
41 13 -3 37 -18 54 -34 24 -23 34 -26 56 -19 14 5 26 12 26 15 0 4 -18 18 -40
32 -22 13 -36 28 -32 31 6 6 108 39 119 39 2 0 2 -4 -1 -8 -7 -11 7 -30 24
-32 61 -9 74 16 22 40 l-27 12 25 13 c22 13 26 12 39 -5 14 -21 46 -26 71 -10
13 8 12 11 -5 24 -11 9 -29 16 -40 16 l-20 1 20 11 c11 6 23 16 28 22 5 7 12
5 21 -6 18 -24 86 -22 86 1 0 13 -49 31 -66 24 -11 -4 -7 5 10 24 27 31 28 31
47 12 14 -14 24 -16 41 -10 34 12 28 35 -9 39 l-33 3 15 30 c16 30 29 36 40
19 3 -5 14 -10 24 -10 20 0 54 33 44 43 -11 12 -58 8 -72 -5 -7 -7 -4 5 7 26
16 34 24 40 52 40 22 1 37 8 47 23 15 22 14 23 -14 23 -16 0 -35 -6 -42 -12
-11 -11 -13 -7 -7 21 3 18 6 37 6 41 0 4 11 5 23 3 26 -5 57 19 57 43 0 19
-34 18 -50 -1 -20 -24 -26 -18 -22 19 3 28 9 35 32 39 19 4 31 15 38 37 9 25
8 30 -4 30 -8 0 -26 -11 -39 -25 l-25 -24 -1 22 c0 12 -2 30 -4 40 -2 11 3 17
16 17 13 0 25 12 34 33 19 45 1 61 -30 25 -20 -24 -24 -25 -29 -10 -2 9 -8 28
-11 41 -5 15 -3 21 3 17 17 -10 42 23 42 55 0 27 -2 29 -21 18 -12 -6 -24 -20
-26 -30 -8 -28 -20 -23 -32 12 -14 40 -14 39 3 39 18 0 30 33 21 60 -9 29 -24
25 -39 -11 l-13 -31 -21 29 c-12 15 -22 23 -22 16 0 -6 5 -15 10 -18 20 -12 9
-21 -20 -17 -35 5 -38 -6 -9 -37 16 -17 27 -21 50 -16 17 4 29 2 29 -3 0 -6 3
-19 6 -29 6 -15 4 -16 -7 -5 -7 6 -23 12 -36 12 -23 0 -23 -1 -7 -31 13 -26
20 -30 43 -26 25 5 29 2 39 -28 10 -34 10 -35 -11 -20 -25 17 -57 20 -57 5 0
-19 50 -62 65 -56 8 3 15 1 15 -3 0 -5 3 -18 7 -28 7 -17 6 -17 -20 0 -34 22
-37 22 -37 -7 0 -29 27 -59 46 -52 11 4 14 -2 12 -24 -1 -17 -4 -30 -5 -30 -2
0 -13 10 -25 22 -21 21 -22 21 -28 2 -10 -26 9 -64 32 -64 15 0 17 -5 12 -27
-9 -38 -12 -39 -25 -9 -18 38 -39 33 -39 -10 0 -27 5 -37 20 -41 22 -6 25 -20
10 -43 -7 -12 -10 -11 -16 5 -13 35 -26 48 -35 33 -14 -22 -10 -67 7 -76 16
-9 16 -11 0 -33 l-16 -23 0 24 c0 14 -4 31 -9 39 -7 10 -12 8 -25 -10 -20 -29
-21 -55 -1 -67 13 -7 12 -11 -8 -30 l-23 -22 4 35 c5 40 -15 48 -36 14 -14
-22 -8 -59 10 -59 6 0 1 -9 -12 -20 -29 -25 -29 -26 -28 10 1 40 -8 47 -33 24
-16 -14 -19 -26 -14 -50 5 -28 -6 -44 -30 -44 -2 0 -1 19 2 41 l6 41 -25 -16
c-30 -19 -39 -46 -26 -70 5 -9 8 -16 6 -16 -2 0 -17 -4 -33 -9 -30 -8 -31 -8
-27 25 l4 34 -53 1 -54 1 60 13 c69 15 136 44 129 57 -3 4 1 5 8 3 7 -3 29 9
48 26 19 17 26 25 15 18 -18 -13 -19 -12 -7 3 8 10 20 14 29 11 13 -5 15 -2
10 11 -4 9 -3 15 2 11 13 -7 72 67 66 83 -3 7 -1 11 4 8 11 -7 23 22 14 36 -3
6 -1 8 4 5 13 -8 26 35 17 56 -3 8 -1 18 4 21 6 3 8 16 4 28 -3 14 -2 19 6 14
9 -5 12 10 12 53 0 36 -4 61 -11 61 -5 0 -7 5 -4 11 9 14 -15 100 -26 93 -5
-3 -6 3 -2 12 4 12 3 15 -5 10 -8 -5 -10 -1 -5 10 4 12 3 15 -5 10 -8 -5 -10
-1 -5 10 5 13 3 15 -7 9 -8 -5 -11 -4 -7 2 22 35 -178 199 -215 177 -6 -4 -8
-3 -4 4 10 17 -99 35 -189 30 -177 -9 -331 -130 -391 -308 -18 -55 -25 -202
-12 -260 17 -77 102 -186 193 -249 41 -29 154 -71 189 -71 10 0 17 -3 13 -6
-3 -3 -22 -6 -41 -6 -32 0 -36 -3 -37 -26 -1 -15 -1 -30 0 -34 0 -4 -13 -2
-29 4 -32 11 -36 18 -20 34 7 7 4 19 -10 37 -29 37 -43 34 -38 -8 4 -39 4 -39
-23 -25 -15 9 -17 14 -7 29 9 15 8 24 -6 46 -22 33 -41 27 -40 -13 2 -28 0
-30 -16 -22 -27 14 -32 27 -15 34 21 8 19 29 -6 60 -25 32 -38 21 -33 -27 l4
-32 -21 22 c-20 20 -21 23 -6 38 19 18 18 45 -2 69 -18 22 -31 11 -31 -27 l-1
-32 -20 25 c-19 22 -19 25 -5 28 19 4 30 42 21 72 -9 29 -26 21 -39 -18 l-11
-33 -12 31 c-6 16 -8 28 -4 26 25 -16 60 64 36 84 -10 8 -17 6 -29 -12 -9 -12
-16 -29 -17 -38 0 -8 -5 -1 -10 15 -8 26 -5 32 16 48 17 13 25 28 25 48 0 36
-12 37 -39 3 l-21 -27 0 36 c0 26 4 35 13 31 21 -7 49 31 45 61 l-3 27 -28
-25 -27 -26 0 23 c0 13 8 30 17 37 11 10 14 10 9 2 -11 -20 19 -16 36 5 8 9
18 25 21 35 9 23 -29 23 -55 0 -19 -17 -19 -16 -12 12 10 42 10 42 41 38 23
-4 31 1 47 28 l19 32 -37 -6 c-20 -3 -36 -2 -36 2 0 13 29 46 30 34 0 -20 34
-15 58 7 30 28 28 38 -8 36 -34 -2 -36 2 -17 29 10 12 16 14 21 7 11 -19 51
-14 71 8 16 18 16 20 1 26 -9 3 -26 4 -37 1 -21 -6 -21 -5 1 18 19 21 25 22
34 10 6 -7 18 -15 26 -16 20 -4 60 10 60 21 0 11 -56 30 -66 22 -4 -4 -4 -1 0
6 4 6 3 12 -2 12 -5 0 -9 10 -9 23 -1 39 -3 47 -13 47 -5 0 -16 -13 -25 -29z
m345 -461 c0 -5 -2 -10 -4 -10 -3 0 -8 5 -11 10 -3 6 -1 10 4 10 6 0 11 -4 11
-10z m370 -294 c0 -2 -8 -10 -17 -17 -16 -13 -17 -12 -4 4 13 16 21 21 21 13z
m-370 -196 c0 -5 -2 -10 -4 -10 -3 0 -8 5 -11 10 -3 6 -1 10 4 10 6 0 11 -4
11 -10z m-25 -70 c-3 -5 -16 -10 -28 -9 -21 0 -21 1 -2 9 28 12 37 12 30 0z
m145 0 c0 -5 -8 -9 -17 -9 -10 0 -37 -2 -60 -5 -26 -4 -45 -2 -49 6 -4 6 -3 9
2 6 5 -3 17 -3 26 1 27 9 98 10 98 1z"/>
<path d="M965 1190 c-3 -11 -3 -24 0 -30 6 -10 -13 -36 -28 -37 -48 -4 -60
-24 -24 -39 25 -11 57 -7 57 7 0 14 26 11 40 -6 11 -13 8 -15 -13 -15 -14 0
-28 -4 -32 -9 -8 -14 24 -41 48 -41 34 1 80 43 80 75 0 56 -40 50 -45 -7 l-2
-25 -27 26 c-16 16 -24 30 -18 36 13 13 11 47 -5 68 -17 22 -23 22 -31 -3z"/>
<path d="M920 1150 c20 -13 33 -13 25 0 -3 6 -14 10 -23 10 -15 0 -15 -2 -2
-10z"/>
</g>
</svg>
